<svg height="512" viewBox="0 0 58 60" width="512" xmlns="http://www.w3.org/2000/svg"><g id="002---Wifi-Home"><path id="Shape" d="m30.41.59c-.7800749-.77544719-2.0399251-.77544719-2.82 0l-10.59 10.58v-1.17c0-1.1045695-.8954305-2-2-2h-6c-1.1045695 0-2 .8954305-2 2v11.17l-6.28 6.28c-.37555409.3751365-.58657331.8841815-.58657331 1.415s.21101922 1.0398635.58657331 1.415l2.82 2.83c.65426391.6539298 1.67160636.7738604 2.46.29v24.6c0 1.1045695.8954305 2 2 2h42c1.1045695 0 2-.8954305 2-2v-24.6c.7883936.4838604 1.8057361.3639298 2.46-.29l2.82-2.83c.3755541-.3751365.5865733-.8841815.5865733-1.415s-.2110192-1.0398635-.5865733-1.415zm-21.41 9.41h6v3.17l-6 6zm-1 48v-26.51l21-21 21 21v26.51zm45-26.3-23.12-23.16c-.2327994-.23450132-.5495663-.36638681-.88-.36638681s-.6472006.13188549-.88.36638681l-23.12 23.16-2.87-2.83 26.87-26.87 26.87 26.87z"/><path id="Shape" d="m29 47c-1.6568542 0-3 1.3431458-3 3s1.3431458 3 3 3 3-1.3431458 3-3-1.3431458-3-3-3zm0 4c-.5522847 0-1-.4477153-1-1s.4477153-1 1-1 1 .4477153 1 1-.4477153 1-1 1z"/><path id="Shape" d="m14.46 37.28c-.3863841.4043006-.5858437.9519078-.55 1.51.06 1.07.67 1.38 2.24 2.7.8007265.6759004 1.9873842.6191851 2.72-.13 2.6331454-2.7853755 6.2970153-4.3636385 10.13-4.3636385s7.4968546 1.578263 10.13 4.3636385c.7326158.7491851 1.9192735.8059004 2.72.13l1.53-1.29c.4254101-.3555134.6841642-.8716597.714497-1.425233.0303328-.5535734-.1704776-1.0949013-.554497-1.494767-3.7781817-4.0002741-9.0375596-6.2672508-14.54-6.2672508s-10.7618183 2.2669767-14.54 6.2672508zm26.12 2.72c-3.0189-3.160544-7.1993255-4.948525-11.57-4.948525s-8.5511 1.787981-11.57 4.948525l-1.52-1.31c3.4005878-3.6028198 8.1357788-5.6447622 13.09-5.6447622s9.6894122 2.0419424 13.09 5.6447622z"/><path id="Shape" d="m20.65 42.38c-.4181813.3938355-.6468306.948468-.6276932 1.5225898.0191374.5741217.2842136 1.1122967.7276932 1.4774102l1.55 1.3c.7707936.6377142 1.8942205.6078131 2.63-.07 2.2984619-2.1219656 5.8415381-2.1219656 8.14 0 .7373.6836183 1.867509.7135859 2.64.07l1.54-1.3c.4434796-.3651135.7085558-.9032885.7276932-1.4774102.0191374-.5741218-.2095119-1.1287543-.6276932-1.5225898-4.6536965-4.5087473-12.0463035-4.5087473-16.7 0zm13.77 2.74c-3.0626956-2.8210904-7.7773044-2.8210904-10.84 0l-1.58-1.3c3.8785016-3.7594429 10.0414984-3.7594429 13.92 0z"/></g></svg>